<?xml version="1.0" encoding="UTF-8"?>
<svg width="581px" height="199px" viewBox="0 0 581 199" version="1.1" xmlns="http://www.w3.org/2000/svg" xmlns:xlink="http://www.w3.org/1999/xlink">
    <title>reach-neuro-logo</title>
    <g id="Logos" stroke="none" stroke-width="1" fill="none" fill-rule="evenodd">
        <g id="reach-neuro-logo" fill-rule="nonzero">
            <path d="M152.089246,198.999462 L134.958035,198.999462 C106.560197,198.999462 83.5644027,175.817576 83.5644027,147.248705 L83.5644027,104.537389 C83.5644027,98.1914405 88.6830054,93.0368027 94.9853892,93.0368027 L117.826824,93.0368027 C143.060562,93.0368027 163.509695,113.628462 163.509695,139.038073 L163.509695,187.499414 C163.509695,193.844824 158.391092,198.999462 152.089246,198.999462 Z" id="Path" fill="#03275A"></path>
            <path d="M60.5508595,0 L51.4192335,0 C23.0216108,0 0,23.1816714 0,51.7508643 L0,187.499951 C0,193.845362 5.11876943,199 11.4207714,199 L20.5522359,199 C48.9498586,199 71.9454919,175.818114 71.9454919,147.249243 L71.9454919,11.50021 C71.9454919,5.15436892 66.8268892,0 60.5250432,0 L60.5508595,0 Z" id="Path" fill="#024AA6"></path>
            <path d="M152.089246,0 L112.1166,0 C96.3482703,0 83.5644027,12.8729873 83.5644027,28.7504981 L83.5644027,69.8301757 C83.5644027,76.1755865 88.6830054,81.3302243 94.9853892,81.3302243 L117.826824,81.3302243 C143.060562,81.3302243 163.509695,60.7385649 163.509695,35.3294381 L163.509695,11.52608 C163.509695,5.15436892 158.416908,0 152.089246,0 Z" id="Path" fill="#0397F2"></path>
            <path d="M271.342954,197.704886 L259.58797,197.704886 C256.784222,197.704886 254.340286,197.704886 252.488511,193.482859 L226.663151,136.396214 C226.3028,135.697024 225.968803,135.463603 225.608451,135.463603 C225.248638,135.463603 225.01683,135.697024 225.01683,136.396214 L225.01683,195.347543 C225.01683,196.642657 224.090673,197.67907 222.804703,197.67907 L212.927311,197.67907 C211.641341,197.67907 210.586641,196.616841 210.586641,195.347543 L210.586641,115.312432 C210.586641,112.722205 212.670224,110.624638 215.242165,110.624638 L227.820578,110.624638 C230.264514,110.624638 231.550484,111.323827 232.939181,114.380359 L260.051049,174.626803 C260.282319,175.222189 260.64267,175.558876 260.976668,175.558876 C261.208476,175.558876 261.568289,175.196373 261.568289,174.497184 L261.568289,112.851824 C261.568289,111.556711 262.494446,110.624638 263.780954,110.624638 L273.786889,110.624638 C275.072859,110.624638 275.999016,111.556711 275.999016,112.851824 L275.999016,193.016554 C275.999016,195.580965 273.915432,197.704886 271.342954,197.704886 Z" id="Path" fill="#03275A"></path>
            <path d="M342.4591,197.005159 C338.729195,197.601084 334.202214,198.636959 320.33783,198.636959 C305.212754,198.636959 293.45777,194.544551 293.45777,174.600449 L293.45777,133.702184 C293.45777,113.784435 305.212754,109.665673 320.33783,109.665673 C334.202214,109.665673 338.729195,110.727903 342.4591,111.297473 C344.208149,111.530895 344.773954,112.126281 344.773954,113.758081 L344.773954,121.269524 C344.773954,122.564638 343.719254,123.601051 342.4591,123.601051 L318.717324,123.601051 C311.9524,123.601051 309.534281,125.932041 309.534281,133.676368 L309.534281,146.341911 L341.069865,146.341911 C342.356373,146.341911 343.385257,147.404141 343.385257,148.673438 L343.385257,157.116954 C343.385257,158.412068 342.330557,159.448481 341.069865,159.448481 L309.534281,159.448481 L309.534281,174.574632 C309.534281,182.318959 311.978216,184.650486 318.717324,184.650486 L342.4591,184.650486 C343.74507,184.650486 344.773954,185.712178 344.773954,187.007292 L344.773954,194.518735 C344.773954,196.150535 344.182332,196.745922 342.4591,196.979343" id="Path" fill="#03275A"></path>
            <path d="M391.929962,198.663314 C373.204062,198.663314 359.9313,190.452681 359.9313,165.483559 L359.9313,112.878178 C359.9313,111.583065 360.986,110.650454 362.246154,110.650454 L373.769868,110.650454 C375.055838,110.650454 376.110538,111.583065 376.110538,112.878178 L376.110538,165.483559 C376.110538,178.84883 379.377365,185.168962 391.929962,185.168962 C404.482559,185.168962 407.749386,178.84883 407.749386,165.483559 L407.749386,112.878178 C407.749386,111.583065 408.804086,110.650454 410.090057,110.650454 L421.61377,110.650454 C422.899741,110.650454 423.928624,111.583065 423.928624,112.878178 L423.928624,165.483559 C423.928624,190.452681 410.655862,198.663314 391.929962,198.663314 Z" id="Path" fill="#03275A"></path>
            <path d="M502.278151,197.704886 L488.07977,197.704886 C486.793262,197.704886 486.330722,196.539392 485.764378,195.373897 L468.993519,164.085181 L467.373014,164.085181 C464.363273,164.085181 459.681932,163.722141 457.006727,163.618876 L457.006727,195.373897 C457.006727,196.669011 456.081108,197.704886 454.7946,197.704886 L443.168159,197.704886 C441.882189,197.704886 440.827489,196.643195 440.827489,195.373897 L440.827489,114.742862 C440.827489,112.386057 442.216186,111.583065 444.557395,111.220562 C450.602154,110.287951 458.859041,109.692027 467.373014,109.692027 C485.3013,109.692027 500.889454,116.141778 500.889454,136.189146 L500.889454,137.251376 C500.889454,149.684035 494.716151,157.402546 485.172757,161.158268 L503.436116,195.373897 C503.667386,195.7364 503.667386,196.073086 503.667386,196.30597 C503.667386,197.135316 503.204308,197.704886 502.278151,197.704886 Z M484.812943,136.189146 C484.812943,127.408405 478.999454,123.653222 467.347197,123.653222 C464.9038,123.653222 459.090311,123.886105 456.980911,124.118989 L456.980911,150.486489 C458.833224,150.616108 465.366878,150.84953 467.347197,150.84953 C479.333989,150.84953 484.812943,147.560114 484.812943,137.251376 L484.812943,136.189146 Z" id="Shape" fill="#03275A"></path>
            <path d="M547.674892,198.663314 C528.484838,198.663314 514.517727,187.88827 514.517727,162.090341 L514.517727,146.265 C514.517727,120.492886 528.484838,109.692027 547.674892,109.692027 C566.864946,109.692027 580.854108,120.46707 580.854108,146.265 L580.854108,162.090341 C580.854108,187.862454 566.886459,198.663314 547.674892,198.663314 Z M564.546865,146.265 C564.546865,130.801624 559.066297,123.886105 547.674892,123.886105 C536.278646,123.886105 530.799692,130.801624 530.799692,146.265 L530.799692,162.090341 C530.799692,177.553716 536.278646,184.469235 547.674892,184.469235 C559.066297,184.469235 564.546865,177.553716 564.546865,162.090341 L564.546865,146.265 Z" id="Shape" fill="#03275A"></path>
            <path d="M275.28423,93.0373405 L260.339868,93.0373405 C259.002265,93.0373405 258.51337,91.7943973 257.895932,90.5767324 L240.250549,57.6304 L238.526778,57.6304 C235.3374,57.6304 230.450068,57.2678973 227.620503,57.1382784 L227.620503,90.5767324 C227.620503,91.9234784 226.643251,93.0373405 225.305649,93.0373405 L213.06177,93.0373405 C211.724168,93.0373405 210.618373,91.9234784 210.618373,90.5767324 L210.618373,5.67219919 C210.618373,3.21155881 212.084519,2.33091389 214.527916,1.96829286 C220.907211,0.984044243 229.601359,0.362410195 238.552595,0.362410195 C257.432854,0.362410195 273.8439,7.14856405 273.8439,28.2581614 L273.8439,29.3719159 C273.8439,42.4520784 267.361878,50.5851008 257.304311,54.5480514 L276.544922,90.5767324 C276.802008,90.9392351 276.802008,91.3017378 276.802008,91.5609757 C276.802008,92.4156 276.313114,93.0373405 275.335862,93.0373405 M256.944497,28.2581614 C256.944497,19.0113843 250.822289,15.0484876 238.552595,15.0484876 C235.980654,15.0484876 229.858446,15.2815865 227.646319,15.5406092 L227.646319,43.3068103 C229.601359,43.4363216 236.469011,43.6694743 238.552595,43.6694743 C251.182641,43.6694743 256.944497,40.2245692 256.944497,29.3719159 L256.944497,28.2581614 Z" id="Shape" fill="#0397F2"></path>
            <path d="M342.210081,92.2865189 C338.300538,92.9077216 333.515932,94.0215838 318.931384,94.0215838 C303.009232,94.0215838 290.610995,89.6962919 290.610995,68.7163135 L290.610995,25.6421181 C290.610995,4.68793443 303.009232,0.362410195 318.931384,0.362410195 C333.515932,0.362410195 338.300538,1.47616586 342.210081,2.09779884 C344.062395,2.33091389 344.654016,2.95254686 344.654016,4.68793443 L344.654016,12.5878257 C344.654016,13.934733 343.547684,15.0484876 342.210081,15.0484876 L317.208151,15.0484876 C310.108692,15.0484876 307.536214,17.5090957 307.536214,25.6680419 L307.536214,39.007227 L340.743935,39.007227 C342.081538,39.007227 343.18787,40.1209816 343.18787,41.4678351 L343.18787,50.3520019 C343.18787,51.6988554 342.081538,52.81261 340.743935,52.81261 L307.536214,52.81261 L307.536214,68.7421297 C307.536214,76.8747757 310.108692,79.3617378 317.208151,79.3617378 L342.210081,79.3617378 C343.547684,79.3617378 344.654016,80.4750622 344.654016,81.8223459 L344.654016,89.7221081 C344.654016,91.457173 344.036578,92.0530973 342.210081,92.3123351" id="Path" fill="#0397F2"></path>
            <path d="M426.664605,93.0373405 L413.674746,93.0373405 C412.568951,93.0373405 411.5917,92.0530973 411.359892,90.9392351 L405.726578,67.4986486 L377.534732,67.4986486 L371.901957,90.9392351 C371.670149,92.0530973 370.667081,93.0373405 369.586565,93.0373405 L356.596705,93.0373405 C355.362368,93.0373405 354.384578,92.1827162 354.384578,90.9392351 C354.384578,90.8101541 354.513122,90.5767324 354.513122,90.3174946 L374.602441,12.9504359 C377.534732,1.47617124 386.357962,0.362410195 391.630924,0.362410195 C396.903886,0.362410195 405.726578,1.47617124 408.65887,12.9504359 L428.748189,90.3174946 C428.748189,90.5509162 428.876732,90.8101541 428.876732,90.9392351 C428.876732,92.1827162 427.899481,93.0373405 426.664605,93.0373405 Z M393.585965,16.7838751 C393.225614,15.3074565 392.839984,14.8153349 391.630924,14.8153349 C390.421865,14.8153349 390.036235,15.3074565 389.675884,16.7838751 L380.853192,53.434243 L402.434473,53.434243 L393.611243,16.7838751 L393.585965,16.7838751 Z" id="Shape" fill="#0397F2"></path>
            <path d="M491.992003,92.0530973 C490.140227,92.5452189 482.062978,94.0215838 472.622849,94.0215838 C457.909757,94.0215838 437.948981,86.7435622 437.948981,56.2573 L437.948981,38.1265714 C437.948981,7.14856405 457.935573,0.362410195 472.622849,0.362410195 C482.062978,0.362410195 490.140227,1.83878689 491.992003,2.33091389 C493.586692,2.82303551 494.693024,3.44466849 494.693024,5.18006143 L494.693024,13.4426114 C494.693024,14.9189762 494.075586,16.0327308 492.249089,16.0327308 L492.017819,16.0327308 C487.722108,15.6701205 479.388311,15.0484876 472.906289,15.0484876 C462.616914,15.0484876 455.131824,20.5913368 455.131824,38.1265714 L455.131824,56.2573 C455.131824,73.4041081 462.616914,79.3353838 472.906289,79.3353838 C479.413589,79.3353838 487.747924,78.7141811 492.017819,78.3511405 L492.249089,78.3511405 C494.075586,78.3511405 494.693024,79.4650027 494.693024,80.9413676 L494.693024,89.2041703 C494.693024,90.9392351 493.586692,91.5609757 491.992003,92.0530973 Z" id="Path" fill="#0397F2"></path>
            <path d="M575.814568,93.0378784 L563.675568,93.0378784 C562.336351,93.0378784 561.233784,91.9240162 561.233784,90.5772703 L561.233784,52.8132016 L526.430297,52.8132016 L526.430297,90.5772703 C526.430297,91.9240162 525.323965,93.0378784 523.986362,93.0378784 L511.845211,93.0378784 C510.507608,93.0378784 509.401814,91.9240162 509.401814,90.5772703 L509.401814,3.70423978 C509.401814,2.35737551 510.507608,1.34721924 511.845211,1.34721924 L523.986362,1.34721924 C525.323965,1.34721924 526.430297,2.33147324 526.430297,3.70423978 L526.430297,37.7644989 L561.233784,37.7644989 L561.233784,3.70423978 C561.233784,2.35737551 562.336351,1.34721924 563.675568,1.34721924 L575.814568,1.34721924 C577.153784,1.34721924 578.26173,2.33147324 578.26173,3.70423978 L578.26173,90.5772703 C578.26173,91.9240162 577.153784,93.0378784 575.814568,93.0378784 Z" id="Path" fill="#0397F2"></path>
        </g>
    </g>
</svg>